<svg xmlns="http://www.w3.org/2000/svg" width="1200" height="630" viewBox="0 0 1200 630">
  <defs>
    <linearGradient id="bg" x1="0" y1="0" x2="1" y2="1">
      <stop offset="0" stop-color="#0b1220"/>
      <stop offset="1" stop-color="#0f2a2a"/>
    </linearGradient>
    <linearGradient id="accent" x1="0" y1="0" x2="1" y2="0">
      <stop offset="0" stop-color="#2dd4bf"/>
      <stop offset="1" stop-color="#38bdf8"/>
    </linearGradient>
    <filter id="soft" x="-20%" y="-20%" width="140%" height="140%">
      <feGaussianBlur in="SourceGraphic" stdDeviation="12"/>
    </filter>
  </defs>

  <rect width="1200" height="630" fill="url(#bg)"/>

  <g opacity="0.35" filter="url(#soft)">
    <circle cx="220" cy="160" r="120" fill="#2dd4bf"/>
    <circle cx="980" cy="120" r="160" fill="#38bdf8"/>
    <circle cx="940" cy="520" r="220" fill="#22c55e"/>
  </g>

  <g>
    <path d="M160 420 C280 300, 420 300, 560 220" fill="none" stroke="url(#accent)" stroke-width="10" stroke-linecap="round"/>
    <path d="M520 240 L585 205 L570 275 Z" fill="#38bdf8"/>

    <path d="M240 520 C420 380, 620 380, 820 270" fill="none" stroke="#93c5fd" stroke-opacity="0.5" stroke-width="6" stroke-linecap="round"/>
    <path d="M790 295 L840 260 L832 318 Z" fill="#93c5fd" fill-opacity="0.55"/>
  </g>

  <g transform="translate(80 90)">
    <text x="0" y="0" fill="#e5e7eb" font-family="Georgia, 'Times New Roman', serif" font-size="56" font-weight="700">
      MySQL Index
    </text>
    <text x="0" y="64" fill="#e5e7eb" font-family="Georgia, 'Times New Roman', serif" font-size="44" font-weight="700">
      Đường đi cho query
    </text>

    <rect x="0" y="105" width="560" height="6" fill="url(#accent)" opacity="0.9"/>

    <text x="0" y="160" fill="#cbd5e1" font-family="ui-monospace, SFMono-Regular, Menlo, Monaco, Consolas, 'Liberation Mono', 'Courier New', monospace" font-size="22">
      EXPLAIN -> Where + Order + Limit
    </text>
    <text x="0" y="195" fill="#94a3b8" font-family="ui-monospace, SFMono-Regular, Menlo, Monaco, Consolas, 'Liberation Mono', 'Courier New', monospace" font-size="18">
      Index is not magic. It is a route.
    </text>
  </g>

  <g transform="translate(760 210)">
    <rect x="0" y="0" width="360" height="240" rx="16" fill="#0b1b2a" stroke="#1f2937"/>

    <rect x="26" y="28" width="308" height="40" rx="10" fill="#0f2a2a" stroke="#134e4a"/>
    <text x="44" y="54" fill="#99f6e4" font-family="ui-monospace, SFMono-Regular, Menlo, Monaco, Consolas, 'Liberation Mono', 'Courier New', monospace" font-size="16">
      KEY: idx_user_status_created
    </text>

    <rect x="26" y="84" width="308" height="40" rx="10" fill="#0f172a" stroke="#1e3a8a" opacity="0.9"/>
    <text x="44" y="110" fill="#bfdbfe" font-family="ui-monospace, SFMono-Regular, Menlo, Monaco, Consolas, 'Liberation Mono', 'Courier New', monospace" font-size="16">
      type: ref | rows: 20
    </text>

    <rect x="26" y="140" width="308" height="40" rx="10" fill="#111827" stroke="#334155"/>
    <text x="44" y="166" fill="#e5e7eb" font-family="ui-monospace, SFMono-Regular, Menlo, Monaco, Consolas, 'Liberation Mono', 'Courier New', monospace" font-size="16">
      Extra: Using index
    </text>

    <rect x="26" y="196" width="308" height="24" rx="8" fill="url(#accent)" opacity="0.25"/>
  </g>
</svg>
